<svg width="400" height="400" viewBox="0 0 400 400" fill="none" xmlns="http://www.w3.org/2000/svg">
  <!-- Cup -->
  <path d="M160 160h80c11.046 0 20 8.954 20 20v80c0 11.046-8.954 20-20 20h-80c-11.046 0-20-8.954-20-20v-80c0-11.046 8.954-20 20-20z" fill="#4B5563"/>
  <!-- Saucer -->
  <path d="M140 280h120v10c0 5.523-4.477 10-10 10h-100c-5.523 0-10-4.477-10-10v-10z" fill="#6B7280"/>
  <!-- Coffee Layer -->
  <path d="M160 200h80v40h-80v-40z" fill="#78350F"/>
  <!-- Milk Layer -->
  <path d="M160 180h80v20h-80v-20z" fill="#F3F4F6"/>
  <!-- Steam -->
  <path d="M180 140c0 0 10-20 20-20s10 20 20 20" stroke="#9CA3AF" stroke-width="4" stroke-linecap="round"/>
  <!-- Code Review Comments -->
  <text x="170" y="220" fill="#F3F4F6" font-family="monospace" font-size="12">// LGTM</text>
  <!-- Chocolate Square -->
  <rect x="280" y="200" width="40" height="40" rx="5" fill="#7C2D12"/>
  <path d="M280 220h40" stroke="#92400E" stroke-width="2"/>
  <path d="M300 200v40" stroke="#92400E" stroke-width="2"/>
</svg>
