<svg width="400" height="400" viewBox="0 0 400 400" fill="none" xmlns="http://www.w3.org/2000/svg">
  <!-- Coffee Cup -->
  <path d="M120 140h160c11.046 0 20 8.954 20 20v140c0 11.046-8.954 20-20 20H120c-11.046 0-20-8.954-20-20V160c0-11.046 8.954-20 20-20z" fill="#4B5563"/>
  <path d="M140 120h120v20H140v-20z" fill="#6B7280"/>
  <!-- Steam -->
  <path d="M160 80c0 0 10-20 30-20s20 20 40 20" stroke="#9CA3AF" stroke-width="6" stroke-linecap="round"/>
  <path d="M180 60c0 0 10-20 30-20s20 20 40 20" stroke="#9CA3AF" stroke-width="6" stroke-linecap="round"/>
  <!-- Caramel Drizzle -->
  <path d="M140 160c20-10 40 10 60 0s40-10 60 0" stroke="#D97706" stroke-width="4" stroke-linecap="round"/>
  <!-- Coffee -->
  <path d="M120 180h160v100H120V180z" fill="#78350F"/>
  <!-- Handle -->
  <path d="M300 180c20 0 40 20 40 40s-20 40-40 40" stroke="#4B5563" stroke-width="20" stroke-linecap="round"/>
  <!-- Code Symbols -->
  <text x="160" y="240" fill="#F59E0B" font-family="monospace" font-size="24">{}</text>
  <text x="200" y="240" fill="#F59E0B" font-family="monospace" font-size="24">()</text>
  <text x="240" y="240" fill="#F59E0B" font-family="monospace" font-size="24">;</text>
</svg>
