<?xml version="1.0" encoding="UTF-8"?>
<svg viewBox="0 0 60 60" xmlns="http://www.w3.org/2000/svg">
  <defs>
    <linearGradient id="logoGradient" x1="0%" y1="0%" x2="100%" y2="0%">
      <stop offset="0%" style="stop-color:#059669;stop-opacity:1" />
      <stop offset="100%" style="stop-color:#065f46;stop-opacity:1" />
    </linearGradient>
    <linearGradient id="steamGradient" x1="0%" y1="0%" x2="0%" y2="100%">
      <stop offset="0%" style="stop-color:#34d399;stop-opacity:1" />
      <stop offset="100%" style="stop-color:#059669;stop-opacity:1" />
    </linearGradient>
  </defs>

  <g transform="translate(1,1) scale(1.3)">
    <!-- Coffee Cup Base -->
    <path d="M15,8
             L35,8
             C38,8 40,10 40,13
             L37,35
             C36.5,38 35,40 32,40
             L18,40
             C15,40 13.5,38 13,35
             L10,13
             C10,10 12,8 15,8 Z"
          fill="url(#logoGradient)"
          stroke="#065f46"
          stroke-width="2.5"
          stroke-linecap="round"
          stroke-linejoin="round"/>

    <!-- Steam -->
    <g class="steam" fill="none" stroke="url(#steamGradient)" stroke-width="2" stroke-linecap="round">
      <path d="M20,3 Q22,1 24,3 Q26,5 28,3">
        <animate attributeName="opacity"
                 values="0.5;1;0.5"
                 dur="2s"
                 repeatCount="indefinite"/>
      </path>
      <path d="M24,2 Q26,0 28,2 Q30,4 32,2"
            opacity="0.6">
        <animate attributeName="opacity"
                 values="0.3;0.8;0.3"
                 dur="2.5s"
                 repeatCount="indefinite"/>
      </path>
    </g>

    <!-- Handle -->
    <path d="M40,15
             C45,15 48,18 48,22
             C48,26 45,29 40,29"
          fill="none"
          stroke="#065f46"
          stroke-width="2.5"
          stroke-linecap="round"
          stroke-linejoin="round"/>

    <!-- Circuit Pattern -->
    <g class="circuits">
      <!-- Horizontal Lines -->
      <line x1="18" y1="16" x2="32" y2="16" stroke="#10b981" stroke-width="1.5" stroke-linecap="round"/>
      <line x1="20" y1="22" x2="30" y2="22" stroke="#10b981" stroke-width="1.5" stroke-linecap="round"/>
      <line x1="22" y1="28" x2="28" y2="28" stroke="#10b981" stroke-width="1.5" stroke-linecap="round"/>

      <!-- Connection Points -->
      <circle cx="16" cy="16" r="1" fill="#34d399"/>
      <circle cx="34" cy="16" r="1" fill="#34d399"/>
      <circle cx="18" cy="22" r="1" fill="#34d399"/>
      <circle cx="32" cy="22" r="1" fill="#34d399"/>
      <circle cx="20" cy="28" r="1" fill="#34d399"/>
      <circle cx="30" cy="28" r="1" fill="#34d399"/>
    </g>
  </g>
</svg>
